<svg width="60" height="61" viewBox="0 0 60 61" fill="none" xmlns="http://www.w3.org/2000/svg">
<path d="M53.2655 7.03273C47.0649 1.53147 38.859 0.298613 31.205 0.298613H28.7763C20.8462 0.298613 12.585 1.64168 6.73416 7.03273C1.25101 13.2333 0 21.4578 0 29.1115V31.4669C0 39.3786 1.34312 47.7134 6.73416 53.5641C12.9715 59.0841 21.2327 60.2986 28.9235 60.2986H31.0577C39.0063 60.2986 47.378 58.9735 53.2655 53.5641C58.7855 47.3267 60 39.0474 60 31.3564V29.2222C60 21.2738 58.6749 12.9022 53.2655 7.03273Z" fill="#FBFCFD"/>
<path d="M29.997 36.191C27.2593 36.191 25.0323 34.0138 25.0323 31.3373C25.0323 28.661 27.2593 26.4834 29.997 26.4834C32.7344 26.4834 34.9616 28.661 34.9616 31.3373C34.9616 34.0138 32.7344 36.191 29.997 36.191V36.191ZM26.6119 14.5751C26.6119 12.7502 28.1304 11.2657 29.997 11.2657C31.8637 11.2657 33.382 12.7502 33.382 14.5751C33.382 16.4 31.8637 17.8845 29.997 17.8845C28.1304 17.8845 26.6119 16.4 26.6119 14.5751ZM16.9105 27.18C16.4558 28.5483 15.1629 29.4683 13.6929 29.4683C13.3385 29.4683 12.9859 29.4133 12.6448 29.3048C10.8697 28.7407 9.89484 26.8701 10.4719 25.1342C10.9267 23.7659 12.2203 22.8466 13.6907 22.8466C14.0447 22.8466 14.3963 22.9017 14.7372 23.0097C15.5969 23.2828 16.2966 23.8673 16.7073 24.6553C17.1176 25.4434 17.19 26.3398 16.9105 27.18ZM37.6698 31.3373C37.6698 27.5768 35.0487 24.5368 31.3521 24.0004V20.0294C33.9239 19.5166 35.6386 17.239 35.6386 14.5751C35.6386 11.5335 33.1079 9.05929 29.997 9.05929C26.886 9.05929 24.3553 11.5335 24.3553 14.5751C24.3553 17.239 26.5238 19.5166 29.0954 20.0294V24.0004C26.5792 24.3655 24.2349 25.8501 23.1365 27.9979L19.298 26.7784C19.4237 25.7124 19.2279 24.6333 18.718 23.6546C18.034 22.3414 16.8676 21.3668 15.4345 20.9118C14.8685 20.7314 14.2818 20.6401 13.6907 20.6401C11.2396 20.6401 9.08353 22.1723 8.32545 24.4526C7.36412 27.3452 8.98925 30.4632 11.9475 31.4032C12.5143 31.5829 13.1014 31.6746 13.6929 31.6746C15.7583 31.6746 17.6108 30.583 18.5969 28.8754L22.4383 30.0957C22.3689 30.5004 22.3242 30.9134 22.3242 31.3373C22.3242 35.4739 25.766 38.8388 29.997 38.8388C34.2277 38.8388 37.6698 35.4739 37.6698 31.3373ZM49.3185 27.6589C48.908 28.4474 48.2087 29.0314 47.3479 29.3048C47.007 29.4129 46.655 29.468 46.3017 29.468C44.8314 29.468 43.5374 28.5483 43.0825 27.18C42.5061 25.4446 43.4815 23.5737 45.2564 23.0097C45.5977 22.9017 45.9497 22.8466 46.3039 22.8466C47.7734 22.8466 49.0673 23.7664 49.5223 25.1351C49.8012 25.9749 49.729 26.8713 49.3185 27.6589V27.6589ZM51.6689 24.4531C50.9102 22.1723 48.7542 20.6401 46.3039 20.6401C45.7131 20.6401 45.1261 20.7314 44.5592 20.9118C41.968 21.7348 40.4002 24.229 40.6961 26.7792L39.1145 27.2818L39.8118 29.3802L41.3968 28.8762C42.3836 30.5833 44.2363 31.6743 46.3017 31.6743C46.8925 31.6743 47.4795 31.5829 48.0451 31.4032C49.4791 30.9479 50.6453 29.9739 51.3297 28.6606C52.0132 27.3477 52.1336 25.8535 51.6689 24.4531V24.4531ZM42.0637 47.5754C41.4819 47.9886 40.7952 48.2073 40.078 48.2073C38.9955 48.2073 37.9703 47.6975 37.3357 46.8432C36.2385 45.3674 36.5744 43.2929 38.0841 42.2199C38.6671 41.8061 39.3538 41.5876 40.0705 41.5876C41.1526 41.5876 42.1779 42.0977 42.8129 42.9525C43.9095 44.4288 43.5737 46.5032 42.0637 47.5754V47.5754ZM40.0705 39.3811C39.256 39.3811 38.4671 39.5542 37.739 39.8793L36.7597 38.5618L34.9341 39.8587L35.9114 41.1741C34.1393 43.0674 33.9087 45.986 35.51 48.1397C36.5679 49.5636 38.2751 50.4136 40.078 50.4136C41.2751 50.4136 42.4202 50.0492 43.3905 49.3602C45.9066 47.5734 46.4666 44.117 44.6387 41.6556C43.5806 40.2313 41.8725 39.3811 40.0705 39.3811V39.3811ZM22.6579 46.8432C22.0228 47.698 20.9976 48.2081 19.916 48.2081C19.1994 48.2081 18.5121 47.9889 17.9294 47.575C16.4194 46.5027 16.0835 44.4288 17.1808 42.9525C17.8152 42.0981 18.8406 41.5883 19.923 41.5883C20.6405 41.5883 21.3271 41.8066 21.9092 42.2204C23.4192 43.2929 23.7549 45.3669 22.6579 46.8432ZM25.0589 39.8579L23.2333 38.5613L22.2541 39.8793C21.526 39.5542 20.7371 39.382 19.923 39.382C18.1205 39.382 16.4129 40.2322 15.3549 41.6559C13.5267 44.116 14.0866 47.5724 16.6028 49.3602C17.5738 50.0497 18.7192 50.4142 19.916 50.4142C21.7175 50.4142 23.4247 49.5644 24.4835 48.1402C26.0852 45.9849 25.8543 43.0661 24.0817 41.1733L25.0589 39.8579Z" fill="url(#paint0_linear_12521_193)"/>
<defs>
<linearGradient id="paint0_linear_12521_193" x1="44.3926" y1="16.7486" x2="15.1671" y2="48.0891" gradientUnits="userSpaceOnUse">
<stop stop-color="#00B5CB"/>
<stop offset="1" stop-color="#2370E1"/>
</linearGradient>
</defs>
</svg>
