<svg width="25" height="25" viewBox="0 0 25 25" fill="none" xmlns="http://www.w3.org/2000/svg">
<rect width="25" height="25" fill="#E5E5E5"/>
<rect width="320" height="3809" transform="translate(-15 -12)" fill="white"/>
<rect x="-15" y="-12" width="320" height="50" fill="white"/>
<path d="M0 4.6875C0 2.09867 2.09867 0 4.6875 0H20.3125C22.9013 0 25 2.09867 25 4.6875V20.3125C25 22.9013 22.9013 25 20.3125 25H4.6875C2.09867 25 0 22.9013 0 20.3125V4.6875Z" fill="#78BD20"/>
<path d="M20.2524 6.69674C20.6272 4.64317 20.0506 3.2146 17.6866 3.2146H10.3353L9.64342 6.81579H15.8993C16.274 6.81579 16.3893 7.02412 16.3317 7.47055L15.5245 11.7563H11.6326L12.2092 8.78008L3.2146 13.2444H9.90288L9.3263 16.2206L15.2362 13.3039L14.4578 17.5301C14.3425 17.9467 14.1407 18.1551 13.6794 18.1551H7.48126L6.8182 21.786H14.1984C16.5335 21.786 17.6866 20.3575 18.0326 18.3039L20.2524 6.69674Z" fill="black"/>
</svg>
