<svg width="26" height="26" viewBox="0 0 26 26" fill="none" xmlns="http://www.w3.org/2000/svg">
<path d="M25.8681 13.0003C25.8681 20.0912 20.116 25.8681 13.0003 25.8681C5.88463 25.8681 0.132568 20.116 0.132568 13.0003C0.132568 5.88463 5.88463 0.132568 13.0003 0.132568C20.116 0.132568 25.8681 5.90943 25.8681 13.0003Z" fill="#ED1D24"/>
<path d="M20.7605 18.2317C20.7605 18.7524 20.339 19.1739 19.8184 19.1739C19.2977 19.1739 18.8762 18.7524 18.8762 18.2317C18.8762 17.711 19.2977 17.2896 19.8184 17.2896C20.3638 17.2896 20.7605 17.711 20.7605 18.2317Z" fill="white"/>
<path d="M9.15723 18.7513C8.1655 17.71 8.93409 15.7017 9.10764 14.0158C8.8845 14.2389 6.77707 19.1728 4.84319 19.1728C4.81839 19.1728 4.76881 19.1728 4.74401 19.1728C2.98368 18.9992 3.20682 16.5695 3.75228 15.1067H6.57872C5.71095 17.5116 6.90104 16.5199 7.71922 15.0075C9.35558 11.6852 9.38038 11.6108 11.1655 6.60254H14.2895C13.3721 9.45378 12.5787 12.0075 12.2068 14.9579C12.2068 15.0571 12.2564 15.181 12.3804 15.1315C13.025 15.0323 16.5209 7.14799 16.8432 6.60254H19.9672C19.9672 6.60254 16.6448 15.7761 17.1903 16.6439C17.463 17.1397 17.8349 16.1976 18.182 15.8257L18.6779 16.3216C17.7605 17.3381 16.7192 19.1976 15.2564 19.1976C15.1324 19.1976 15.0333 19.1728 14.9093 19.1728C14.6862 19.1232 14.463 18.9992 14.3143 18.8505C12.6283 17.3877 15.6779 11.9331 15.3556 11.586C15.2564 11.586 15.1572 11.8587 14.9837 12.2306C14.0663 14.1397 11.9341 19.1976 10.1738 19.1976C9.87624 19.1728 9.45475 19.0736 9.15723 18.7513Z" fill="white"/>
</svg>
